<?xml version="1.0" encoding="utf-8"?>
<!-- Generator: Adobe Illustrator 16.2.1, SVG Export Plug-In . SVG Version: 6.00 Build 0)  -->
<!DOCTYPE svg PUBLIC "-//W3C//DTD SVG 1.1//EN" "http://www.w3.org/Graphics/SVG/1.1/DTD/svg11.dtd">
<svg version="1.1" id="Layer_1" xmlns="http://www.w3.org/2000/svg" xmlns:xlink="http://www.w3.org/1999/xlink" x="0px" y="0px"
	 width="376.974px" height="187px" viewBox="82.513 0 376.974 187" enable-background="new 82.513 0 376.974 187"
	 xml:space="preserve">
<path fill="#E0E0E0" d="M219.733,71.412v36.761H327.63V71.412H219.733z M274.818,91.486l-5.477,11.98l2.104-11.981h-6.513
	l1.549-3.389l5.471-11.982l-2.098,11.982h6.512L274.818,91.486z"/>
<g>
	<path fill="#EAEAEA" d="M459.487,185.6c0,0.764-0.62,1.385-1.386,1.385H299.064c-0.765,0-1.385-0.621-1.385-1.385V1.401
		c0-0.765,0.62-1.385,1.385-1.385h159.037c0.766,0,1.386,0.62,1.386,1.385V185.6z"/>
	<path fill="#C6C6C5" d="M459.487,1.401v7.156H297.68V1.401c0-0.766,0.618-1.385,1.385-1.385h159.037
		C458.868,0.016,459.487,0.635,459.487,1.401z"/>
	<rect x="297.68" y="6.249" fill="#DEDDDD" width="161.808" height="8.079"/>
	<g>
		<circle fill="#DF4E2B" cx="300.738" cy="2.594" r="1.039"/>
		<circle fill="#F9DB47" cx="304.009" cy="2.594" r="1.039"/>
		<circle fill="#7BC475" cx="307.279" cy="2.594" r="1.039"/>
	</g>
	<rect x="299.699" y="8.095" fill="#F4F4F4" width="157.346" height="4.27"/>
	<polygon fill="#DEDDDD" points="309.472,6.249 312.164,2.632 342.018,2.632 345.788,6.402 309.472,7.249 	"/>
</g>
<line fill="none" x1="29.439" y1="-32.884" x2="29.439" y2="-38.577"/>
<line fill="none" x1="30.478" y1="-41.193" x2="30.478" y2="-46.887"/>
<g>
	<path fill="#222222" d="M244.238,1.385v184.197c0,0.768-0.628,1.386-1.385,1.386H83.986c-0.762,0-1.385-0.618-1.385-1.386V1.385
		C82.601,0.619,83.224,0,83.986,0h158.867C243.61,0,244.238,0.619,244.238,1.385z"/>
	<g>
		<path fill="#C6C6C5" d="M244.321,1.417v7.155h-0.055V4.958H82.513V1.417c0-0.767,0.619-1.385,1.385-1.385h159.038
			C243.702,0.032,244.321,0.651,244.321,1.417z"/>
		<g>
			<circle fill="#DF4E2B" cx="85.573" cy="2.61" r="1.039"/>
			<circle fill="#F9DB47" cx="88.844" cy="2.61" r="1.039"/>
			<circle fill="#7BC475" cx="92.113" cy="2.61" r="1.039"/>
		</g>
	</g>
	<rect x="116.484" y="4.958" fill="#494849" width="34.47" height="4.846"/>
	<rect x="116.484" y="9.804" fill="#494849" width="127.781" height="0.615"/>
	<path fill="#1E1E1E" d="M116.486,4.958V187H84.013c-0.762,0-1.385-0.619-1.385-1.385V4.958H116.486z"/>
	<rect x="134.334" y="33.392" fill="#F9F8F2" width="0.9" height="1.847"/>
	<g>
		<rect x="128.333" y="42.792" fill="#F9F8F2" width="0.9" height="1.847"/>
	</g>
	<rect x="134.334" y="52.192" fill="#F9F8F2" width="0.9" height="1.846"/>
	<rect x="128.333" y="56.892" fill="#F9F8F2" width="0.9" height="1.847"/>
	<rect x="140.336" y="108.593" fill="#F9F8F2" width="0.9" height="1.847"/>
	<rect x="128.333" y="136.793" fill="#F9F8F2" width="0.9" height="1.848"/>
	<rect x="128.333" y="164.994" fill="#F9F8F2" width="0.9" height="1.847"/>
	<rect x="134.334" y="113.293" fill="#F9F8F2" width="0.9" height="1.847"/>
	<rect x="128.333" y="117.992" fill="#F9F8F2" width="0.9" height="1.848"/>
	<rect x="85.573" y="8.573" fill="#BEBEBE" width="19.831" height="1.847"/>
	<rect x="86.554" y="44.238" fill="#BEBEBE" width="8.04" height="1.847"/>
	<rect x="86.554" y="49.333" fill="#BEBEBE" width="13.003" height="1.847"/>
	<rect x="91.238" y="54.428" fill="#BEBEBE" width="13.003" height="1.847"/>
	<rect x="91.075" y="13.667" fill="#BEBEBE" width="10.791" height="1.847"/>
	<rect x="91.075" y="18.763" fill="#BEBEBE" width="10.791" height="1.847"/>
	<rect x="91.075" y="23.858" fill="#BEBEBE" width="13.33" height="1.847"/>
	<rect x="93.152" y="28.953" fill="#8D8D8A" width="16.676" height="1.847"/>
	<rect x="93.152" y="59.523" fill="#8D8D8A" width="15.022" height="1.847"/>
	<rect x="93.152" y="64.619" fill="#8D8D8A" width="13.176" height="1.847"/>
	<rect x="93.152" y="69.714" fill="#8D8D8A" width="16.676" height="1.847"/>
	<rect x="93.152" y="74.809" fill="#8D8D8A" width="18.523" height="1.847"/>
	<rect x="93.152" y="34.048" fill="#8D8D8A" width="19.831" height="1.847"/>
	<rect x="93.152" y="39.143" fill="#8D8D8A" width="18.523" height="1.847"/>
	<g>
		<rect x="143.194" y="14.591" fill="#F9F8F2" width="0.9" height="1.847"/>
		<rect x="122.486" y="14.591" fill="#EE2E73" width="19.918" height="1.847"/>
	</g>
	<rect x="128.333" y="80.393" fill="#EE2E73" width="19.918" height="1.847"/>
	<g>
		<rect x="147.339" y="169.694" fill="#F9F8F2" width="0.9" height="1.847"/>
		<rect x="122.486" y="169.694" fill="#EE2E73" width="23.852" height="1.847"/>
	</g>
	<g>
		<rect x="143.645" y="38.092" fill="#F9F8F2" width="0.9" height="1.846"/>
		<g>
			<rect x="128.333" y="38.092" fill="#A9CF38" width="14.071" height="1.846"/>
		</g>
	</g>
	<rect x="140.336" y="70.992" fill="#A9CF38" width="14.071" height="1.847"/>
	<rect x="140.336" y="75.692" fill="#A9CF38" width="12.003" height="1.847"/>
	<g>
		<rect x="156.939" y="122.693" fill="#F9F8F2" width="0.9" height="1.846"/>
		<rect x="122.486" y="122.693" fill="#EE2E73" width="19.918" height="1.846"/>
		<rect x="143.801" y="122.693" fill="#A9CF38" width="12.003" height="1.846"/>
	</g>
	<rect x="122.332" y="141.494" fill="#A9CF38" width="12.003" height="1.846"/>
	<g>
		<rect x="149.353" y="19.292" fill="#F9F8F2" width="0.899" height="1.847"/>
		<rect x="128.333" y="19.292" fill="#72CDDA" width="19.918" height="1.847"/>
	</g>
	<g>
		<rect x="144.544" y="23.991" fill="#F9F8F2" width="0.899" height="1.847"/>
		<rect x="128.333" y="23.991" fill="#72CDDA" width="15.312" height="1.847"/>
	</g>
	<g>
		<rect x="149.353" y="28.691" fill="#F9F8F2" width="0.899" height="1.847"/>
		<rect x="128.333" y="28.691" fill="#72CDDA" width="19.918" height="1.847"/>
	</g>
	<g>
		<rect x="152.339" y="66.292" fill="#F89725" width="19.918" height="1.846"/>
		<rect x="134.334" y="66.292" fill="#72CDDA" width="16.619" height="1.846"/>
	</g>
	<g>
		<rect x="146.415" y="127.394" fill="#F89725" width="19.917" height="1.847"/>
		<rect x="128.41" y="127.394" fill="#72CDDA" width="16.619" height="1.847"/>
	</g>
	<g>
		<rect x="146.415" y="132.094" fill="#9B85BE" width="8.441" height="1.846"/>
		<rect x="128.41" y="132.094" fill="#72CDDA" width="16.619" height="1.846"/>
	</g>
	<g>
		<rect x="146.415" y="146.193" fill="#9B85BE" width="5.924" height="1.847"/>
		<rect x="128.41" y="146.193" fill="#72CDDA" width="16.619" height="1.847"/>
	</g>
	<g>
		<rect x="143.375" y="150.895" fill="#9B85BE" width="11.481" height="1.846"/>
		<rect x="128.41" y="150.895" fill="#72CDDA" width="13.994" height="1.846"/>
	</g>
	<g>
		<rect x="148.677" y="155.594" fill="#9B85BE" width="8.724" height="1.847"/>
		<rect x="128.41" y="155.594" fill="#72CDDA" width="18.961" height="1.847"/>
	</g>
	<g>
		<rect x="146.274" y="160.293" fill="#9B85BE" width="8.724" height="1.848"/>
		<rect x="128.41" y="160.293" fill="#72CDDA" width="16.619" height="1.848"/>
	</g>
	<g>
		<rect x="145.375" y="174.394" fill="#F9F8F2" width="0.899" height="1.847"/>
		<rect x="127.949" y="174.394" fill="#72CDDA" width="16.619" height="1.847"/>
	</g>
	<g>
		<rect x="130.377" y="47.492" fill="#F89725" width="19.917" height="1.847"/>
		<rect x="122.486" y="47.492" fill="#72CDDA" width="6.425" height="1.847"/>
	</g>
	<g>
		<rect x="140.294" y="103.893" fill="#72CDDA" width="28.28" height="1.847"/>
		<rect x="169.642" y="103.893" fill="#9B85BE" width="19.917" height="1.847"/>
	</g>
	<g>
		<rect x="140.336" y="99.193" fill="#72CDDA" width="13.621" height="1.846"/>
		<rect x="154.856" y="99.193" fill="#9B85BE" width="3.576" height="1.846"/>
	</g>
	<g>
		<rect x="140.294" y="94.492" fill="#72CDDA" width="19.918" height="1.848"/>
		<rect x="161.197" y="94.492" fill="#9B85BE" width="3.576" height="1.848"/>
	</g>
	<g>
		<rect x="134.334" y="85.092" fill="#EE2E73" width="19.918" height="1.847"/>
		<rect x="155.446" y="85.092" fill="#9B85BE" width="5.972" height="1.847"/>
	</g>
	<g>
		<rect x="153.957" y="61.592" fill="#F9F8F2" width="0.899" height="1.847"/>
		<rect x="128.333" y="61.592" fill="#EE2E73" width="19.918" height="1.847"/>
		<rect x="149.353" y="61.592" fill="#9B85BE" width="3.755" height="1.847"/>
	</g>
	<g>
		<rect x="134.334" y="89.792" fill="#EE2E73" width="19.918" height="1.847"/>
		<rect x="155.446" y="89.792" fill="#9B85BE" width="2.986" height="1.847"/>
	</g>
	<path fill="#494849" d="M244.238,182.12v3.462c0,0.768-0.628,1.386-1.385,1.386H83.986c-0.762,0-1.385-0.618-1.385-1.386v-3.462
		H244.238z"/>
</g>
<rect x="308.317" y="24.352" fill="#F4F4F4" width="136.022" height="9.203"/>
<rect x="308.317" y="39.446" fill="#F4F4F4" width="31.69" height="73.847"/>
<rect x="345.788" y="39.446" fill="#F4F4F4" width="98.552" height="130.248"/>
<rect x="345.788" y="85.113" fill="#F4F4F4" width="30.54" height="40.946"/>
<rect x="379.793" y="85.267" fill="#F4F4F4" width="30.541" height="40.946"/>
<rect x="413.799" y="85.267" fill="#F4F4F4" width="30.541" height="40.946"/>
</svg>
