<?xml version="1.0" encoding="utf-8"?>
<!-- Generator: Adobe Illustrator 16.2.1, SVG Export Plug-In . SVG Version: 6.00 Build 0)  -->
<!DOCTYPE svg PUBLIC "-//W3C//DTD SVG 1.1//EN" "http://www.w3.org/Graphics/SVG/1.1/DTD/svg11.dtd">
<svg version="1.1" id="Layer_1" xmlns="http://www.w3.org/2000/svg" xmlns:xlink="http://www.w3.org/1999/xlink" x="0px" y="0px"
	 width="483.886px" height="126.168px" viewBox="0 0 483.886 126.168" enable-background="new 0 0 483.886 126.168"
	 xml:space="preserve">
<g>
	<path fill="#222222" d="M43.723,37.119c1.43,0,2.142,0.529,2.142,1.959v3.57c0,1.611-0.712,2.141-2.142,2.141H22.666v57.107
		c0,8.75,4.996,14.807,22.486,14.807h2.854c1.429,0,2.142,0.716,2.142,2.145v3.751c0,1.61-0.713,2.14-2.142,2.14H44.08
		c-24.093,0-30.695-8.563-30.695-21.943V44.789H2.143C0.535,44.789,0,44.26,0,42.648v-2.855c0-1.611,0.535-1.959,2.143-2.145
		l9.459-0.529h1.783V17.845c0-1.61,0.715-2.323,2.142-2.323h5.175c1.429,0,1.965,0.713,1.965,2.323v19.274H43.723z"/>
	<path fill="#222222" d="M69.432,57.281c0-12.849,7.316-21.954,31.05-21.954c23.916,0,31.053,9.105,31.053,21.954v65.317
		c0,1.429-0.535,2.14-1.963,2.14h-4.463c-1.604,0-2.141-0.711-2.141-2.14l-0.355-7.138c-5.178,4.102-15.527,10.707-30.34,10.707
		c-16.597,0-24.449-9.099-24.449-20.702v-9.099c0-11.602,7.495-20.699,22.308-20.699h32.301V57.996
		c0-8.566-4.461-14.992-22.129-14.992c-17.488,0-22.13,6.068-22.13,14.816v2.674c0,1.609-0.713,2.141-2.141,2.141h-4.638
		c-1.43,0-1.963-0.531-1.963-2.141V57.281z M122.433,107.79V83.154H91.737c-10.351,0-14.812,5.709-14.812,14.277v6.963
		c0,8.395,5.354,13.92,17.31,13.92C108.335,118.314,118.329,110.995,122.433,107.79z"/>
	<path fill="#222222" d="M223.995,122.599c0.893,1.072,0.357,2.14-0.893,2.14h-5.889c-1.607,0-2.678-0.711-3.75-2.14l-36.762-43.729
		h-6.604v43.729c0,1.429-0.713,2.14-2.141,2.14h-5.176c-1.427,0-1.962-0.711-1.962-2.14V2.141c0-1.428,0.535-2.141,1.962-2.141
		h5.176c1.428,0,2.141,0.713,2.141,2.141V71.56h6.426l32.48-32.664c1.07-1.062,2.141-2.14,3.568-2.14h5.891
		c1.426,0,1.963,1.078,0.891,2.14l-35.157,35.875L223.995,122.599z"/>
	<path fill="#222222" d="M238.466,57.281c0-12.849,7.318-21.954,31.055-21.954c23.912,0,31.051,9.105,31.051,21.954v65.317
		c0,1.429-0.533,2.14-1.963,2.14h-4.461c-1.605,0-2.143-0.711-2.143-2.14l-0.355-7.138c-5.176,4.102-15.527,10.707-30.34,10.707
		c-16.596,0-24.449-9.099-24.449-20.702v-9.099c0-11.602,7.496-20.699,22.309-20.699h32.301V57.996
		c0-8.566-4.461-14.992-22.129-14.992c-17.488,0-22.129,6.068-22.129,14.816v2.674c0,1.609-0.715,2.141-2.143,2.141h-4.639
		c-1.428,0-1.965-0.531-1.965-2.141V57.281z M291.47,107.79V83.154h-30.695c-10.352,0-14.812,5.709-14.812,14.277v6.963
		c0,8.395,5.354,13.92,17.311,13.92C277.372,118.314,287.365,110.995,291.47,107.79z"/>
	<path fill="#222222" d="M338.601,38.896l0.18,7.505c5.176-4.284,15.705-11.073,31.053-11.073c16.775,0,24.448,8.933,24.448,21.415
		v65.856c0,1.429-0.534,2.14-1.962,2.14h-5.176c-1.43,0-1.963-0.711-1.963-2.14V58.535c0-8.748-5.176-14.817-17.49-14.817
		c-14.457,0-24.629,7.313-28.553,10.709v68.172c0,1.429-0.715,2.14-2.143,2.14h-4.998c-1.605,0-2.141-0.711-2.141-2.14V38.896
		c0-1.429,0.535-2.14,2.141-2.14h4.463C337.888,36.756,338.601,37.467,338.601,38.896z"/>
	<path fill="#222222" d="M421.78,57.281c0-12.849,7.318-21.954,31.055-21.954c23.912,0,31.051,9.105,31.051,21.954v65.317
		c0,1.429-0.535,2.14-1.963,2.14h-4.461c-1.607,0-2.141-0.711-2.141-2.14l-0.357-7.138c-5.176,4.102-15.527,10.707-30.34,10.707
		c-16.596,0-24.449-9.099-24.449-20.702v-9.099c0-11.602,7.496-20.699,22.309-20.699h32.301V57.996
		c0-8.566-4.463-14.992-22.128-14.992c-17.489,0-22.13,6.068-22.13,14.816v2.674c0,1.609-0.713,2.141-2.143,2.141h-4.639
		c-1.428,0-1.965-0.531-1.965-2.141V57.281z M474.784,107.79V83.154h-30.693c-10.352,0-14.814,5.709-14.814,14.277v6.963
		c0,8.395,5.354,13.92,17.311,13.92C460.687,118.314,470.679,110.995,474.784,107.79z"/>
</g>
<g>
</g>
<g>
</g>
<g>
</g>
<g>
</g>
<g>
</g>
<g>
</g>
<g>
</g>
</svg>
